<?xml version="1.0" encoding="iso-8859-1"?>
<!-- Uploaded to: SVG Repo, www.svgrepo.com, Generator: SVG Repo Mixer Tools -->
<svg fill="#000000" height="800px" width="800px" version="1.1" id="Layer_1" xmlns="http://www.w3.org/2000/svg" xmlns:xlink="http://www.w3.org/1999/xlink" 
	 viewBox="0 0 512 512" xml:space="preserve">
<g>
	<g>
		<path d="M194.762,410.347c-0.226-4.324-3.934-7.634-8.234-7.42c-4.323,0.226-7.643,3.911-7.42,8.234
			c0.096,1.84,0.136,3.693,0.118,5.507c-0.131,3.158-0.705,10.172-1.133,12.713c-0.145,0.574-0.277,1.149-0.398,1.722
			c-4.612,17.295-18.898,29.356-34.799,29.356c-16.236,0-30.635-12.418-35.02-30.196l-0.019-0.072
			c-0.039-0.188-0.078-0.376-0.121-0.567c-0.376-1.905-1.028-9.43-1.173-12.954c-0.278-28.327,12.88-57.866,36.333-82.041
			c14.827,15.295,25.667,32.922,31.53,51.363c1.311,4.124,5.72,6.407,9.843,5.094c4.124-1.311,6.405-5.718,5.094-9.843
			c-7.354-23.145-21.57-45.039-41.108-63.317c-3.015-2.818-7.696-2.817-10.708,0.001c-30.032,28.096-47.036,64.19-46.652,99.027
			c0.001,0.072,0.003,0.146,0.006,0.219c0.117,3.018,0.791,12.251,1.503,15.689c0.012,0.054,0.023,0.109,0.036,0.163l0.104,0.486
			c0.013,0.059,0.024,0.116,0.039,0.174l0.047,0.194c0.01,0.045,0.021,0.091,0.031,0.136c6.116,24.797,26.773,42.118,50.238,42.118
			c23.078,0,43.641-16.958,50.008-41.237c0.034-0.133,0.066-0.266,0.094-0.4c0.101-0.49,0.213-0.982,0.341-1.471
			c0.048-0.182,0.089-0.366,0.123-0.551c0.652-3.511,1.296-11.904,1.428-15.303c0.003-0.073,0.005-0.146,0.006-0.219
			C194.922,414.774,194.877,412.552,194.762,410.347z"/>
	</g>
</g>
<g>
	<g>
		<path d="M177.21,295.784c2.711-2.393,4.435-5.883,4.435-9.776v-31.155c0-6.604-4.933-12.063-11.304-12.923
			c1.398-3.401,2.172-7.117,2.172-11.009c0-7.775-3.08-14.846-8.084-20.099c5.006-5.254,8.084-12.328,8.084-20.104
			c0-13.483-9.24-24.863-21.777-28.276v-23.577c12.537-3.446,21.777-14.938,21.777-28.554c0-5.119-1.315-9.934-3.612-14.138
			c4.994-2.915,9.524-6.674,13.361-11.196c2.8-3.3,2.395-8.245-0.906-11.045c-3.299-2.8-8.245-2.395-11.045,0.906
			c-6.848,8.072-16.84,12.701-27.411,12.701c-19.814,0-35.935-16.12-35.935-35.934c0-19.813,16.121-35.933,35.935-35.933
			c19.813,0,35.933,16.12,35.933,35.933c0,1.465-0.09,2.945-0.265,4.397c-0.521,4.297,2.54,8.202,6.836,8.724
			c4.286,0.519,8.203-2.539,8.724-6.836c0.252-2.076,0.379-4.191,0.379-6.285C194.505,23.15,171.355,0,142.898,0
			C114.442,0,91.29,23.15,91.29,51.606c0,18.981,10.308,35.59,25.613,44.554c-2.302,4.207-3.62,9.026-3.62,14.151
			c0,13.616,9.241,25.109,21.779,28.554v23.577c-12.538,3.412-21.779,14.792-21.779,28.276c0,7.776,3.078,14.85,8.085,20.104
			c-5.005,5.253-8.085,12.324-8.085,20.099c0,3.893,0.774,7.607,2.172,11.009c-6.373,0.859-11.305,6.32-11.305,12.923v31.155
			c0,3.894,1.722,7.385,4.436,9.779c-34.483,34.174-54.645,78.66-54.031,122.042c0.029,1.373,0.737,15.398,2.347,22.744
			c0.043,0.235,0.12,0.657,0.146,0.785c0.099,0.499,0.226,0.988,0.376,1.462C67.621,483.569,102.722,512,142.898,512
			c40.585,0,75.83-28.851,85.711-70.16c0.032-0.137,0.062-0.273,0.087-0.41c0.063-0.246,0.118-0.492,0.168-0.736
			c1.56-6.989,2.265-19.845,2.364-22.526c0.008-0.133,0.014-0.266,0.016-0.401C231.854,374.434,211.692,329.958,177.21,295.784z
			 M128.957,110.311c0-3.122,1.045-5.999,2.786-8.326c3.595,0.795,7.326,1.228,11.156,1.228c3.792,0,7.532-0.415,11.163-1.217
			c1.736,2.325,2.777,5.197,2.777,8.315c0,7.686-6.253,13.941-13.94,13.941C135.211,124.252,128.957,117.998,128.957,110.311z
			 M142.898,177.066c7.686,0,13.94,6.124,13.94,13.652c0,7.527-6.253,13.651-13.94,13.651c-7.687,0-13.942-6.123-13.942-13.651
			C128.957,183.19,135.211,177.066,142.898,177.066z M156.838,230.921c0,4.442-2.187,8.383-5.552,10.877H134.51
			c-3.366-2.495-5.553-6.436-5.553-10.877c0-4.99,2.757-9.353,6.851-11.733c2.274,0.555,4.646,0.855,7.09,0.855
			c2.443,0,4.816-0.3,7.089-0.855C154.08,221.569,156.838,225.931,156.838,230.921z M119.824,257.472h46.146v25.918h-46.146V257.472
			z M215.569,417.492c-0.051,2.389-0.822,14.569-2.012,19.841c-0.016,0.067-0.029,0.133-0.043,0.198
			c-0.012,0.06-0.027,0.114-0.043,0.165c-0.115,0.374-0.202,0.752-0.259,1.133c-8.393,33.886-37.217,57.498-70.313,57.498
			c-33.055,0-61.978-23.681-70.337-57.585c-0.049-0.197-0.104-0.391-0.168-0.584c-0.04-0.213-0.095-0.52-0.096-0.526
			c-0.02-0.108-0.041-0.215-0.066-0.323c-1.178-5.258-1.955-17.437-2.008-19.759c-0.599-42.49,21.181-86.407,57.813-118.487h29.72
			c36.561,32.019,58.33,75.831,57.819,118.242C215.572,417.367,215.57,417.429,215.569,417.492z"/>
	</g>
</g>
<g>
	<g>
		<path d="M142.898,28.098c-12.962,0-23.508,10.545-23.508,23.508c0,12.962,10.546,23.508,23.508,23.508
			c12.962,0,23.508-10.546,23.508-23.508C166.406,38.645,155.86,28.098,142.898,28.098z M142.898,59.441
			c-4.321,0-7.835-3.514-7.835-7.835c0-4.321,3.514-7.835,7.835-7.835c4.321,0,7.835,3.514,7.835,7.835
			C150.733,55.927,147.219,59.441,142.898,59.441z"/>
	</g>
</g>
<g>
	<g>
		<path d="M369.099,28.098c-12.962,0-23.508,10.546-23.508,23.508c0,12.962,10.546,23.508,23.508,23.508
			c12.962,0,23.508-10.546,23.508-23.508C392.607,38.645,382.061,28.098,369.099,28.098z M369.099,59.441
			c-4.321,0-7.835-3.515-7.835-7.835c0-4.321,3.514-7.835,7.835-7.835c4.321,0,7.835,3.514,7.835,7.835
			C376.934,55.927,373.419,59.441,369.099,59.441z"/>
	</g>
</g>
<g>
	<g>
		<path d="M374.455,317.926c-3.015-2.818-7.696-2.817-10.708,0.001c-30.031,28.095-47.035,64.19-46.652,99.027
			c0.001,0.073,0.003,0.146,0.006,0.219c0.117,3.018,0.791,12.252,1.503,15.689c0.011,0.054,0.023,0.109,0.036,0.162l0.104,0.487
			c0.013,0.059,0.024,0.116,0.038,0.173l0.048,0.194c0.01,0.046,0.021,0.091,0.031,0.137c6.116,24.797,26.772,42.118,50.237,42.118
			c23.078,0,43.642-16.958,50.009-41.237c0.034-0.133,0.067-0.266,0.094-0.4c0.101-0.49,0.213-0.982,0.341-1.471
			c0.048-0.183,0.089-0.368,0.123-0.553c0.653-3.518,1.296-11.907,1.428-15.299c0.003-0.073,0.005-0.146,0.006-0.219
			C421.487,382.111,404.484,346.017,374.455,317.926z M404.296,429.383c-0.145,0.573-0.277,1.148-0.398,1.722
			c-4.612,17.295-18.898,29.356-34.8,29.356c-16.235,0-30.634-12.418-35.019-30.197l-0.019-0.072
			c-0.039-0.188-0.078-0.376-0.121-0.567c-0.376-1.903-1.028-9.43-1.173-12.954c-0.278-28.329,12.877-57.867,36.333-82.042
			c23.451,24.17,36.606,53.708,36.329,82.04C405.298,419.819,404.725,426.835,404.296,429.383z"/>
	</g>
</g>
<g>
	<g>
		<path d="M441.579,348.917c-1.87-3.904-6.552-5.553-10.453-3.683c-3.903,1.869-5.554,6.549-3.683,10.453
			c9.622,20.093,14.576,41.394,14.334,61.617c-0.003,0.064-0.005,0.126-0.006,0.19c-0.051,2.389-0.822,14.568-2.014,19.839
			c-0.016,0.066-0.029,0.133-0.043,0.2c-0.014,0.067-0.031,0.13-0.049,0.189c-0.112,0.366-0.196,0.737-0.252,1.111
			c-8.393,33.884-37.218,57.494-70.314,57.494c-33.054,0-61.978-23.681-70.336-57.585c-0.049-0.197-0.106-0.392-0.168-0.584
			c-0.04-0.213-0.095-0.52-0.096-0.526c-0.02-0.108-0.041-0.215-0.066-0.323c-1.179-5.261-1.956-17.437-2.009-19.759
			c-0.598-42.49,21.184-86.407,57.814-118.487h29.722c11.487,10.046,21.603,21.312,30.154,33.696
			c2.459,3.56,7.339,4.456,10.902,1.996c3.561-2.459,4.455-7.339,1.996-10.902c-6.946-10.06-14.838-19.436-23.577-28.089
			c2.698-2.394,4.409-5.874,4.409-9.756v-31.155c0-6.604-4.932-12.063-11.304-12.923c1.397-3.401,2.172-7.117,2.172-11.009
			c0-7.775-3.079-14.846-8.084-20.099c5.006-5.254,8.084-12.328,8.084-20.104c0-4.329-3.509-7.837-7.837-7.837
			c-4.329,0-7.837,3.508-7.837,7.837c0,7.527-6.254,13.651-13.941,13.651c-7.687,0-13.941-6.123-13.941-13.651
			c0-7.527,6.254-13.652,13.941-13.652c2.523,0,4.992,0.665,7.14,1.923c3.734,2.189,8.536,0.933,10.723-2.802
			c2.188-3.734,0.933-8.535-2.802-10.723c-2.266-1.328-4.698-2.343-7.223-3.028v-23.572c12.537-3.445,21.778-14.938,21.778-28.554
			c0-5.125-1.318-9.944-3.621-14.151c15.305-8.964,25.613-25.574,25.613-44.554C420.705,23.15,397.555,0,369.099,0
			c-28.457,0-51.609,23.15-51.609,51.607c0,18.982,10.308,35.591,25.614,44.554c-2.302,4.207-3.62,9.026-3.62,14.151
			c0,13.616,9.241,25.109,21.778,28.554v23.577c-12.537,3.412-21.778,14.792-21.778,28.276c0,7.776,3.078,14.85,8.084,20.104
			c-5.005,5.253-8.084,12.324-8.084,20.099c0,3.893,0.775,7.607,2.172,11.009c-6.373,0.859-11.305,6.32-11.305,12.923v31.155
			c0,3.894,1.722,7.385,4.436,9.779c-34.483,34.174-54.644,78.66-54.032,122.042c0.029,1.373,0.737,15.393,2.347,22.744
			c0.043,0.234,0.121,0.658,0.147,0.784c0.099,0.498,0.225,0.99,0.376,1.463c10.196,40.749,45.296,69.18,85.473,69.18
			c40.585,0,75.831-28.851,85.712-70.16c0.033-0.139,0.063-0.279,0.088-0.418c0.062-0.242,0.116-0.485,0.166-0.728
			c1.561-6.991,2.266-19.848,2.365-22.526c0.008-0.132,0.014-0.265,0.016-0.399C457.765,395.07,452.278,371.261,441.579,348.917z
			 M333.164,51.606c0-19.813,16.121-35.933,35.935-35.933c19.813,0,35.933,16.12,35.933,35.933c0,19.814-16.12,35.934-35.933,35.934
			C349.284,87.539,333.164,71.421,333.164,51.606z M355.158,110.311c0-3.122,1.045-5.999,2.786-8.326
			c3.594,0.795,7.325,1.228,11.155,1.228s7.56-0.433,11.155-1.228c1.741,2.327,2.786,5.203,2.786,8.326
			c0,7.686-6.254,13.941-13.941,13.941C361.412,124.252,355.158,117.998,355.158,110.311z M362.009,219.188
			c2.274,0.555,4.647,0.855,7.09,0.855c2.443,0,4.816-0.3,7.09-0.855c4.093,2.38,6.851,6.743,6.851,11.733
			c0,4.442-2.188,8.383-5.554,10.877h-16.776c-3.366-2.495-5.553-6.436-5.553-10.877
			C355.158,225.931,357.916,221.569,362.009,219.188z M346.025,257.472h46.146v25.918h-46.146V257.472z"/>
	</g>
</g>
</svg>